<?xml version="1.0" encoding="UTF-8" standalone="no"?>
<!DOCTYPE svg PUBLIC "-//W3C//DTD SVG 1.1//EN" "http://www.w3.org/Graphics/SVG/1.1/DTD/svg11.dtd">
<svg version="1.1" xmlns="http://www.w3.org/2000/svg" xmlns:xlink="http://www.w3.org/1999/xlink" preserveAspectRatio="xMidYMid meet" viewBox="0 0 203 204" width="609" height="612"><defs><path d="M64.84 81.03C64.84 93.07 70.67 116.6 75.37 125.76C50.16 129.4 23.44 130.99 12.14 140.93C13.25 143.47 14.45 145.95 15.76 148.37C17.26 151.13 18.89 153.8 20.64 156.39C22.39 158.98 24.26 161.52 26.25 163.93C28.23 166.33 30.32 168.63 32.53 170.83C34.73 173.04 37.03 175.13 39.43 177.11C41.84 179.1 44.38 180.97 46.97 182.72C49.56 184.47 52.23 186.1 54.99 187.6C57.75 189.1 60.58 190.47 63.49 191.7C66.4 192.93 69.38 194.04 72.43 194.99C75.48 195.94 78.63 196.75 81.8 197.4C84.97 198.05 88.19 198.52 91.46 198.85C94.73 199.19 98.05 199.35 101.41 199.35C104.77 199.35 108.09 199.2 111.36 198.86C114.64 198.53 117.85 198.06 121.02 197.41C124.19 196.77 127.34 195.95 130.4 195C133.45 194.05 136.42 192.95 139.33 191.71C142.25 190.48 145.07 189.11 147.83 187.61C150.59 186.11 153.26 184.48 155.85 182.73C158.44 180.98 160.98 179.11 163.39 177.13C165.8 175.14 168.09 173.05 170.3 170.84C172.5 168.64 174.59 166.34 176.58 163.94C178.56 161.53 180.43 158.99 182.18 156.4C183.93 153.81 185.56 151.14 187.06 148.38C188.37 145.96 189.57 143.48 190.68 140.94C179.81 131.38 154.25 129.96 130.35 126.16C135.17 116.93 141.07 93.25 141.07 81.04C141.07 49.9 125.73 37.03 102.96 37.03C80.19 37.02 64.84 49.89 64.84 81.03Z" id="cI7Rf1Ug3"></path><path d="M101.96 199.91C48.16 200.21 4.3 156.85 4 103.05C4 102.68 4 102.32 4 101.96C3.7 48.16 47.07 4.3 100.87 4C154.67 3.7 198.52 47.07 198.83 100.86C198.83 101.23 198.83 101.59 198.83 101.96C199.13 155.75 155.76 199.61 101.96 199.91Z" id="a25gaURpW"></path></defs><g><g><g><use xlink:href="#cI7Rf1Ug3" opacity="1" fill="#ffffff" fill-opacity="1"></use><g><use xlink:href="#cI7Rf1Ug3" opacity="1" fill-opacity="0" stroke="#000000" stroke-width="1" stroke-opacity="0"></use></g></g><g><use xlink:href="#a25gaURpW" opacity="1" fill="#000000" fill-opacity="0"></use><g><use xlink:href="#a25gaURpW" opacity="1" fill-opacity="0" stroke="#ffffff" stroke-width="4" stroke-opacity="1"></use></g></g></g></g></svg>